<svg viewBox="0 0 50 50" xmlns="http://www.w3.org/2000/svg">
<path d="M25 32.8125C28.4518 32.8125 31.25 30.0143 31.25 26.5625C31.25 23.1107 28.4518 20.3125 25 20.3125C21.5482 20.3125 18.75 23.1107 18.75 26.5625C18.75 30.0143 21.5482 32.8125 25 32.8125Z"/>
<path d="M42.1875 14.0625H36.4258C36.1328 14.0625 35.7695 13.873 35.4863 13.5742L32.9531 9.57617C32.9131 9.51272 32.8683 9.45233 32.8193 9.39551C31.9443 8.375 30.7617 7.8125 29.4922 7.8125H20.5078C19.2383 7.8125 18.0557 8.375 17.1807 9.39551C17.1317 9.45233 17.0869 9.51272 17.0469 9.57617L14.5137 13.5801C14.2969 13.8164 13.9922 14.0684 13.6719 14.0684V13.2871C13.6719 12.8727 13.5073 12.4753 13.2142 12.1823C12.9212 11.8892 12.5238 11.7246 12.1094 11.7246H9.76562C9.35122 11.7246 8.9538 11.8892 8.66077 12.1823C8.36775 12.4753 8.20312 12.8727 8.20312 13.2871V14.0684H7.8125C6.56969 14.0697 5.37816 14.5639 4.49936 15.4427C3.62057 16.3215 3.12629 17.5131 3.125 18.7559V37.5C3.12629 38.7428 3.62057 39.9343 4.49936 40.8131C5.37816 41.6919 6.56969 42.1862 7.8125 42.1875H42.1875C43.4303 42.1862 44.6218 41.6919 45.5006 40.8131C46.3794 39.9343 46.8737 38.7428 46.875 37.5V18.75C46.8737 17.5072 46.3794 16.3157 45.5006 15.4369C44.6218 14.5581 43.4303 14.0638 42.1875 14.0625ZM25 35.9375C23.1458 35.9375 21.3332 35.3877 19.7915 34.3575C18.2498 33.3274 17.0482 31.8632 16.3386 30.1502C15.6291 28.4371 15.4434 26.5521 15.8051 24.7335C16.1669 22.915 17.0598 21.2445 18.3709 19.9334C19.682 18.6223 21.3525 17.7294 23.171 17.3676C24.9896 17.0059 26.8746 17.1916 28.5877 17.9011C30.3007 18.6107 31.7649 19.8123 32.795 21.354C33.8252 22.8957 34.375 24.7083 34.375 26.5625C34.3722 29.048 33.3835 31.4309 31.626 33.1885C29.8684 34.946 27.4855 35.9347 25 35.9375Z"/>
</svg>
