<svg viewBox="0 0 24 24" xmlns="http://www.w3.org/2000/svg">
<path fill-rule="evenodd" clip-rule="evenodd" d="M16.551 22.133C15.111 22.08 11.03 21.516 6.75602 17.243C2.48302 12.969 1.92002 8.88897 1.86602 7.44797C1.78602 5.25197 3.46802 3.11897 5.41102 2.28597C5.645 2.18494 5.90122 2.14647 6.15455 2.17435C6.40788 2.20222 6.64961 2.29548 6.85602 2.44497C8.45602 3.61097 9.56002 5.37497 10.508 6.76197C10.7166 7.0667 10.8058 7.43752 10.7586 7.80377C10.7114 8.17002 10.5311 8.5061 10.252 8.74797L8.30102 10.197C8.20677 10.265 8.14042 10.365 8.1143 10.4783C8.08818 10.5916 8.10407 10.7105 8.15902 10.813C8.60102 11.616 9.38702 12.812 10.287 13.712C11.187 14.612 12.44 15.45 13.299 15.942C13.4067 16.0024 13.5335 16.0193 13.6533 15.9892C13.7731 15.9591 13.8767 15.8842 13.943 15.78L15.213 13.847C15.4465 13.5368 15.7909 13.329 16.1742 13.2672C16.5575 13.2053 16.9498 13.2941 17.269 13.515C18.676 14.489 20.318 15.574 21.52 17.113C21.6817 17.3209 21.7845 17.5684 21.8177 17.8296C21.851 18.0908 21.8134 18.3562 21.709 18.598C20.872 20.551 18.754 22.214 16.551 22.133Z"/>
</svg>
