<svg viewBox="0 0 33 33" xmlns="http://www.w3.org/2000/svg">
<path d="M12.9234 14.4375L19.4821 3.08C17.454 2.62666 15.3495 2.63988 13.3272 3.11864C11.305 3.5974 9.4179 4.52921 7.80836 5.84375L12.8409 14.575L12.9234 14.4375ZM29.6159 12.375C28.3509 8.36 25.2846 5.1425 21.3659 3.6575L16.3334 12.375H29.6159ZM29.9734 13.75H19.6746L20.0734 14.4375L26.6184 25.7812C28.9581 23.2576 30.2551 19.9414 30.2484 16.5C30.2484 15.5512 30.1521 14.6437 29.9734 13.75ZM11.7409 16.5L6.37836 7.21875C4.90524 8.81449 3.83274 10.7377 3.24939 12.8296C2.66605 14.9216 2.58857 17.1222 3.02336 19.25H13.3221L11.7409 16.5ZM3.38086 20.625C4.64586 24.64 7.71211 27.8575 11.6309 29.3425L16.6634 20.625H3.38086ZM18.8771 20.625L13.5146 29.92C15.5427 30.3733 17.6473 30.3601 19.6695 29.8814C21.6917 29.4026 23.5788 28.4708 25.1884 27.1562L20.1559 18.425L18.8771 20.625Z"/>
</svg>
